<?xml version="1.0" encoding="UTF-8"?>
<svg id="Crest" xmlns="http://www.w3.org/2000/svg" viewBox="0 0 1200 1200">
  <path d="M1198.3,563.13c-1.52-26.12-4.96-53.03-10.23-79.99-36.81-194.09-161.02-350.76-340.74-429.83C769.67,17.97,686.46.04,600,0c-86.46.04-169.67,17.97-247.31,53.3C172.95,132.38,48.74,289.05,11.94,483.13c-5.27,26.97-8.72,53.89-10.24,79.99-.75,10.44-1.26,21.52-1.56,33.91-2.02,89.97,17.58,177.59,58.25,260.41,47.99,101,123.11,186.48,217.22,247.21,96.48,62.25,208.4,95.22,323.74,95.35h.68c115.54-.02,227.7-33,324.34-95.35,94.11-60.73,169.23-146.22,217.22-247.19,40.68-82.84,60.29-170.46,58.26-260.43-.29-12.38-.81-23.46-1.56-33.9ZM930.52,378.01c-5.83,3.62-11.49,6.49-16.83,8.54-31.74-77.11-30.77-175.58,2.46-251.95,8.43,5.76,16.63,11.71,24.41,17.71,36.14,27.6,56.34,71.29,54.06,116.85-2.28,45.49-25.64,85.16-64.1,108.86ZM992.37,398.14c33.87-25.69,62.71-60.63,82.05-99.58,18.15,28.6,33.8,59.13,46.56,90.82-42.3-7.08-87.46-3.97-128.61,8.76ZM959.28,466.69c40.98-23.96,90.37-24.62,132.11-1.72,41.69,22.86,67.67,64.8,69.48,112.16.17,4.75.26,9.42.35,14.15-80.35-15.16-151.95-59.3-202-124.54.03-.02.04-.03.06-.05ZM600,1028.53c5.01,47.1,21.33,91.39,47.9,129.53-31.68,2.7-64.1,2.7-95.79,0,26.57-38.13,42.89-82.43,47.9-129.53ZM853.95,754.56c-66.7,27.38-150.83,22.79-215.44-11.65,47.36-46.62,81-100.87,97.45-157.16,60.7,37.74,103.6,99.1,117.99,168.8ZM600,551.64c32.28,0,58.54,26.29,58.54,58.6s-26.26,58.6-58.54,58.6-58.54-26.28-58.54-58.6,26.26-58.6,58.54-58.6ZM600.01,496.04h-.01c-33.36.12-67.04,5.19-97.56,14.66.19-76.62,37.4-153.33,97.57-200.97,60.17,47.65,97.38,124.35,97.57,200.97-30.52-9.47-64.2-14.54-97.56-14.66ZM528.77,825.14c14.78-8.73,29.82-19.48,45.99-32.86,1.49-1.26,2.97-2.63,4.45-4.01,4.49-4.19,9.13-8.51,14.82-9.79,1.78-.4,3.96-.69,5.98-.58,2.31.09,4.2.18,5.96.58,5.69,1.27,10.33,5.6,14.82,9.79,1.49,1.38,2.96,2.75,4.46,4.02,16.16,13.38,31.2,24.12,45.97,32.85l12.54,7.46-10.55,9.52c-14.4,13.02-27.02,27.93-37.53,44.33l-2.55,4.05c-7.87,12.74-14.51,26.56-19.73,41.12-.44,1.33-1.54,4.71-2.09,6.55l-2.18,7.21-9.11.2-9.19-.2-2.18-7.21c-.55-1.84-1.65-5.21-2.11-6.59-5.21-14.52-11.84-28.35-19.72-41.09l-2.55-4.05c-10.5-16.39-23.12-31.29-37.52-44.32l-10.55-9.52,12.54-7.46ZM561.48,742.91c-64.6,34.44-148.72,39.03-215.44,11.65,14.39-69.7,57.29-131.06,117.99-168.8,16.45,56.28,50.09,110.53,97.45,157.16ZM898.78,458.29c-.24.24-5.36,6.47-7.57,9.19-13.39,16.67-23.09,29.74-28.05,37.85-9.33,16.85-16.5,34.79-21.31,53.32l-3.57,14.05c-7.9-4.73-39.31-23.08-79.09-40.11-9.28-6.79-13.35-17.71-11.22-29.79,6.47-21.92,10.25-42.07,12.25-65.3l1.26-13.61,12.82,4.79c39.21,14.55,79.42,18.56,113.24,11.31l7.18-1.53,8.69,14.2-4.61,5.63ZM438.53,423.9l1.26,13.59c2,23.25,5.78,43.39,12.21,65.14,2.17,12.25-1.9,23.18-10.86,29.79-40.07,17.18-71.52,35.55-79.41,40.29l-3.57-14.06c-4.81-18.52-11.98-36.46-21.35-53.37-4.93-8.05-14.62-21.12-28.02-37.8-2.2-2.72-7.33-8.95-7.46-9.06l-4.72-5.75,8.69-14.2,7.18,1.53c33.79,7.25,74.02,3.23,113.24-11.31l12.82-4.79ZM551.69,980.36c3.71,46.62-16.83,90.43-55.04,117.32-38.45,27.08-86.97,31.54-129.78,11.94h0c-6.9-3.13-13.64-6.38-20.09-9.67,47.8-61.47,127.84-108.19,204.91-119.59ZM853.22,1099.95c-6.44,3.29-13.19,6.54-20.09,9.67h0c-42.8,19.6-91.32,15.13-129.78-11.94-38.19-26.88-58.72-70.64-55.05-117.32,77.08,11.4,157.12,58.12,204.92,119.59ZM124.29,385.67c-15.25,0-30.43,1.22-45.27,3.71,12.76-31.7,28.42-62.22,46.56-90.82,19.34,38.95,48.17,73.89,82.05,99.58-26.72-8.26-55.12-12.47-83.34-12.47ZM39.13,577.14c1.81-47.37,27.79-89.31,69.48-112.17,20.37-11.17,42.55-16.74,64.68-16.74,23.22,0,46.37,6.13,67.26,18.35.08.06.15.12.23.17-50.05,65.24-121.65,109.38-202,124.54.08-4.73.18-9.4.35-14.14ZM286.32,386.55c-5.35-2.05-11.01-4.92-16.84-8.55-38.45-23.69-61.81-63.36-64.09-108.85-2.28-45.57,17.92-89.25,54.06-116.85h0c7.78-6,15.98-11.95,24.41-17.71,33.23,76.37,34.2,174.84,2.46,251.95ZM88.95,897.26c11.07-136.63,71.14-306.79,206.48-375.64,15.27,27.35,22.15,69.66,21.12,89.38-33.27,44.5-45.48,96.92-56.25,143.19-4.53,19.46-8.81,37.84-14.2,53.85-.99,1.94-.95,4.2.18,6.35,1.2,1.87,3.04,3.01,4.98,3.19,17.19,3.6,35.51,9.53,54.9,15.8,44.29,14.32,94.44,30.58,149.08,24.69,19.02,9.78,52.46,36.57,67.71,62.69-128.1,81.55-305.01,46.83-428.12-13.06h.01s-6.54-3.24-6.54-3.24l.65-7.2ZM677.05,920.76c15.25-26.13,48.69-52.92,67.71-62.69,54.63,5.88,104.79-10.36,149.08-24.69,19.4-6.27,37.72-12.2,54.72-15.78,2.13-.2,3.96-1.35,5.24-3.34,1.05-2.02,1.09-4.28.2-6-5.49-16.23-9.77-34.61-14.3-54.07-10.77-46.26-22.98-98.69-56.25-143.19-1.02-19.71,5.85-62.03,21.12-89.38,135.34,68.85,195.41,239.01,206.48,375.66l.65,7.19-6.54,3.24c-123.1,59.87-299.99,94.6-428.1,13.06ZM770.58,166.41c40.53,68.35,60.87,146.22,58.83,225.2l-.07,3.48c-29.68-2.97-75.53-30.11-80.42-33.05-28.14-61.07-69.66-99.5-106.3-133.42-14.75-13.66-28.69-26.56-41.02-40.15l-1.17-.7-.45.19-.83-.33-.77.85c-12.33,13.59-26.26,26.49-41.02,40.15-36.64,33.91-78.16,72.35-106.3,133.42-4.89,2.94-50.73,30.09-80.42,33.05l-.07-3.49c-2.04-78.97,18.3-156.84,58.83-225.19,40.38-68.1,98.86-123.53,169.12-160.32l1.46-.77,1.46.77c70.26,36.78,128.74,92.22,169.12,160.32Z"/>
</svg>