<?xml version="1.0" encoding="UTF-8"?>
<svg id="Crest" xmlns="http://www.w3.org/2000/svg" viewBox="0 0 1200 1200">
  <defs>
    <style>
      .cls-1 {
        fill: #fff;
      }
    </style>
  </defs>
  <path class="cls-1" d="M1139.34,856.38l.02-.03h0c38.61-78.64,58.14-161.55,58.14-246.7,0-4.18-.05-8.37-.14-12.56-.29-12.34-.8-23.39-1.55-33.78h0s0-.03,0-.03h0c-1.51-26.01-4.94-52.81-10.19-79.66h0s0-.01,0-.01c-36.68-193.31-160.3-349.24-339.29-428.01h-.02s-.01-.02-.01-.02C768.96,20.39,686.11,2.54,600,2.5c-86.12.04-168.96,17.89-246.28,53.07h0s-.02.01-.02.01h0C174.69,134.36,51.07,290.29,14.39,483.6h0s0,.01,0,.01c-5.25,26.86-8.68,53.67-10.19,79.66h0s0,.03,0,.03h0c-.75,10.4-1.26,21.44-1.55,33.79-.09,4.19-.14,8.38-.14,12.57,0,85.15,19.53,168.06,58.14,246.68l-.37.18.37-.18v.02s.01,0,.01,0c7.71,16.22,16.13,32.03,25.2,47.4l.6-6.73h0c5.56-68.58,23.4-145.54,56.88-214.11,33.48-68.56,82.66-128.79,150.96-163.54l2.14-1.09,1.17,2.1c7.31,13.1,12.66,29.35,16.22,45.01,3.55,15.66,5.31,30.71,5.32,41.48,0,1.49-.03,2.91-.1,4.23l-.04.76-.18.24-.27.37c-32.88,43.96-45.05,95.98-55.82,142.26-4.53,19.46-8.82,37.9-14.27,54.09h0s-.06.17-.06.17l-.03.06-.05.1c-.29.58-.43,1.17-.43,1.8,0,.67.17,1.38.55,2.16.83,1.23,1.96,1.86,3.04,1.96h.15s.05.02.05.02l.08.02c17.38,3.64,35.76,9.6,55.16,15.87,37.89,12.26,79.81,25.8,124.92,25.8h.02s.01,0,.01,0h0c7.61,0,15.31-.38,23.1-1.22l.74-.08.27.14.4.21c9.79,5.04,22.99,14.26,35.78,25.57,12.78,11.31,25.1,24.67,32.94,38.09l1.21,2.08-2.03,1.29c-54.13,34.46-116.83,48.3-180.4,48.36h0s-.43,0-.43,0c-88.11,0-177.96-26.39-249.69-61.27l.03.02-.05-.03s.01,0,.02.01l-5.97-2.96c47.06,78.58,111.63,145.51,189.18,195.55,96.08,61.99,207.52,94.82,322.38,94.95h.68c115.07-.02,226.75-32.86,322.99-94.95,77.55-50.05,142.13-116.98,189.19-195.55l-5.92,2.94h0s-.04.02-.04.02c-71.73,34.88-161.58,61.26-249.7,61.27,0,0,0,0-.01,0-63.72,0-126.57-13.82-180.82-48.35l-2.03-1.29,1.21-2.08c7.84-13.42,20.17-26.78,32.95-38.09,12.79-11.31,25.99-20.53,35.78-25.57l.67-.34.3.03.45.05c7.78.84,15.47,1.22,23.07,1.22h.03c45.11,0,87.04-13.54,124.94-25.8,19.4-6.27,37.78-12.23,54.97-15.85h0s.14-.03.14-.03h.06s.08-.01.08-.01h0c.7-.07,1.28-.27,1.84-.62h0c.52-.33,1.02-.81,1.47-1.48.34-.69.5-1.41.5-2.05,0-.6-.13-1.13-.35-1.55l-.09-.17-.02-.07-.04-.11c-5.55-16.4-9.83-34.85-14.36-54.31-10.77-46.27-22.93-98.3-55.82-142.26l-.46-.61-.02-.3-.02-.45c-.07-1.33-.1-2.74-.1-4.23,0-10.78,1.76-25.82,5.32-41.48,3.56-15.66,8.91-31.9,16.22-45.01l1.17-2.1,2.14,1.09c68.29,34.75,117.47,94.97,150.96,163.54,33.48,68.57,51.32,145.53,56.88,214.12h0l.61,6.72c9.07-15.37,17.49-31.17,25.19-47.37v-.02ZM1072.18,297.44l.9.44-.9-.45,1.97-3.97,2.38,3.74c18.23,28.73,33.95,59.39,46.77,91.23l1.67,4.13-4.4-.73c-14.7-2.46-29.76-3.68-44.87-3.68-27.96,0-56.12,4.18-82.59,12.36l-13.55,4.18,11.3-8.56c33.55-25.44,62.16-60.1,81.32-98.7ZM427.27,165.14c40.62-68.49,99.44-124.25,170.11-161.25h0s0,0,0,0h0l2.62-1.38,2.62,1.38h0c70.67,37,129.49,92.76,170.11,161.25,38.9,65.6,59.32,139.94,59.32,215.65,0,3.62-.05,7.25-.14,10.88h0,0s0,0,0,0h0s-.12,6.18-.12,6.18l-2.69-.27c-7.73-.78-16.31-3.08-24.98-6.13-8.66-3.05-17.4-6.85-25.35-10.64-15.89-7.58-28.63-15.14-31.13-16.63l-.66-.4-.13-.28-.19-.42c-27.91-60.57-69.08-98.71-105.73-132.63-14.59-13.51-28.43-26.33-40.76-39.86l-.17.07-.16-.06c-12.33,13.53-26.17,26.35-40.76,39.86-36.65,33.92-77.81,72.06-105.73,132.63l-.32.7-.26.16-.4.24c-3.75,2.24-30.5,18.12-56.48,27.27-8.67,3.05-17.25,5.36-24.98,6.13l-2.69.27-.12-6.2h0c-.09-3.62-.14-7.25-.14-10.88,0-75.7,20.42-150.03,59.32-215.63ZM696.83,513.09c-30.26-9.39-63.71-14.42-96.83-14.55-33.11.12-66.57,5.16-96.83,14.55l-3.25,1.01v-3.4c.21-77.42,37.74-154.77,98.53-202.93l1.55-1.23,1.55,1.23c60.79,48.16,98.31,125.5,98.52,202.93v3.4s-3.24-1.01-3.24-1.01l.3-.96-.3.96ZM538.96,610.24c0-33.69,27.37-61.1,61.04-61.1,33.67,0,61.03,27.41,61.04,61.1,0,33.69-27.37,61.09-61.04,61.09-33.67,0-61.03-27.4-61.04-61.09h1-1ZM76.7,388.44h0c12.82-31.84,28.54-62.5,46.77-91.23l2.38-3.75,1.97,3.97c19.16,38.6,47.76,73.26,81.32,98.7l11.32,8.58-13.57-4.2c-26.47-8.19-54.63-12.35-82.6-12.35-15.11,0-30.16,1.21-44.86,3.67l-4.4.73,1.67-4.13ZM242.76,468.26c-50.42,65.72-122.57,110.2-203.52,125.47h0l-3.02.57.06-3.07c.08-4.73.18-9.42.35-14.19h0s0,0,0,0h0c1.84-48.25,28.33-91.01,70.77-114.28,20.73-11.37,43.34-17.05,65.88-17.05,23.66,0,47.25,6.25,68.52,18.69h0s.1.06.1.06l2.42,1.74-1.57,2.04ZM287.7,389.75l-2.28-.87c-5.52-2.12-11.31-5.05-17.25-8.75h0s0,0,0,0c0,0,0,0-.01,0h0c-39.13-24.1-62.96-64.58-65.27-110.85-.12-2.37-.18-4.73-.18-7.09,0-43.79,20.3-85.2,55.22-111.87h0l.67-.51h.01c7.61-5.85,15.61-11.65,23.84-17.27l2.5-1.71,1.21,2.77c17.21,39.55,25.82,84.88,25.82,130.16,0,42.95-7.75,85.85-23.34,123.74l-.93,2.25ZM306.83,469.05h0c-1.86-2.29-5.83-7.12-7.05-8.58-.12-.14-.2-.24-.25-.29l-.03-.02-5.97-7.27,10.54-17.22,8.91,1.9c10.8,2.31,22.29,3.46,34.22,3.46,24.77,0,51.41-4.96,77.62-14.68h0l12.82-4.78,3.06-1.14,1.56,16.85h0s0,.02,0,.02c1.99,23.1,5.73,43.05,12.12,64.65l.04.13v.06s.02.08.02.08c.41,2.31.61,4.58.61,6.81v.04c0,10.3-4.44,19.49-12.45,25.38l-.23.17-.1.04-.16.07c-39.91,17.11-71.28,35.44-79.11,40.13l-2.88,1.73-4.4-17.31c-4.75-18.3-11.84-36.02-21.09-52.75-4.81-7.86-14.47-20.89-27.8-37.48ZM439.83,774.82c-32.83,0-65.42-5.91-94.74-17.95l-1.92-.79.42-2.03c14.54-70.38,57.83-132.31,119.12-170.42l2.8-1.74.92,3.16c16.31,55.81,49.71,109.72,96.8,156.08h0l2.43,2.39-3,1.6c-36.94,19.69-80.09,29.7-122.82,29.7ZM498.09,1099.73c-22.91,16.14-49.37,24.4-76.12,24.46h0s-.33,0-.33,0c-18.67,0-37.47-4-55.29-12.07h-.02l-.2-.09-.29-.13c-6.93-3.15-13.71-6.41-20.19-9.72l-2.69-1.38,1.86-2.38c24.13-31.03,56.32-58.26,92.19-79.2,35.87-20.94,75.43-35.58,114.33-41.33l2.65-.39.21,2.67c.29,3.67.44,7.32.44,10.95,0,43.34-20.62,83.35-56.53,108.62h0ZM648.11,1160.54l-.09-1,.08,1c-15.91,1.35-32.01,2.03-48.1,2.03s-32.2-.68-48.11-2.03l-4.32-.37,2.48-3.55c26.33-37.78,42.49-81.67,47.46-128.36l2.49-23.36,2.49,23.36c4.97,46.69,21.14,90.58,47.46,128.36l2.48,3.55-4.32.37ZM763,1019.22c35.87,20.94,68.07,48.17,92.19,79.2l1.86,2.38-2.69,1.38-.46-.89.45.89c-6.48,3.31-13.26,6.58-20.19,9.72l-.49.22h-.02c-17.82,8.07-36.61,12.07-55.28,12.07,0,0,0,0-.01,0-26.86,0-53.44-8.27-76.45-24.47-35.91-25.27-56.53-65.28-56.53-108.7,0-3.6.14-7.23.43-10.87l.21-2.67,2.65.39c38.9,5.76,78.46,20.4,114.33,41.33ZM674.9,843.98c-14.24,12.87-26.71,27.61-37.1,43.82l-2.53,4.02c-7.77,12.57-14.33,26.23-19.49,40.62-.44,1.33-1.53,4.67-2.06,6.44h0s-2.7,8.95-2.7,8.95l-10.98.24-11.05-.24-2.7-8.95h0c-.53-1.77-1.62-5.11-2.07-6.48-5.15-14.35-11.71-28.01-19.48-40.59l-2.52-4.01h0s0-.02,0-.02c-10.38-16.2-22.86-30.94-37.09-43.81l-13.07-11.79,15.49-9.22h0c14.63-8.65,29.55-19.31,45.62-32.61,1.42-1.2,2.87-2.54,4.35-3.92,2.25-2.09,4.6-4.29,7.2-6.18,2.59-1.87,5.46-3.46,8.73-4.2h0s0,0,0,0h0s.03,0,.05-.01h0c1.66-.37,3.61-.65,5.58-.66h0s1.03.02,1.03.02h.03s.01,0,.01,0h0c2.28.09,4.3.18,6.34.63h0s0,0,0,0h0s.03,0,.04,0h0s0,0,0,0h0c3.29.74,6.17,2.33,8.77,4.22,2.6,1.89,4.95,4.09,7.2,6.18,1.48,1.38,2.93,2.72,4.36,3.92,16.06,13.3,30.98,23.95,45.62,32.6h0s15.49,9.22,15.49,9.22l-13.07,11.79ZM854.9,756.87c-29.32,12.03-61.91,17.94-94.74,17.94-42.73,0-85.89-10.01-122.82-29.7l.47-.88-.47.88-3-1.6,2.42-2.38c47.09-46.36,80.49-100.26,96.8-156.08l.92-3.16,2.8,1.74c61.28,38.11,104.58,100.04,119.12,170.42l.42,2.03-1.92.79ZM900.72,459.88h0s-.08.1-.08.1l-.03.03h0s-.02.03-.02.03c-.04.05-.1.12-.18.22-.16.19-.39.46-.66.79-.54.66-1.27,1.54-2.07,2.5-1.58,1.92-3.41,4.15-4.51,5.51h0c-13.33,16.58-22.99,29.62-27.84,37.54-9.22,16.66-16.3,34.38-21.06,52.69h0l-4.4,17.3-2.88-1.73c-7.83-4.7-39.16-22.99-78.79-39.95h0s-.26-.11-.26-.11l-.09-.06-.14-.1c-8.29-6.04-12.8-15.3-12.8-25.57v-.05s0,0,0,0c0,0,0,0,0,0v-.02h0c0-2.17.2-4.38.59-6.61l.02-.14.02-.05.02-.08c6.43-21.78,10.17-41.72,12.15-64.81h0s0-.02,0-.02l1.56-16.86,15.88,5.93c26.2,9.72,52.83,14.68,77.59,14.68h0s0,0,0,0c11.93,0,23.43-1.15,34.24-3.47l8.91-1.9,10.54,17.22-5.74,7.01ZM931.86,380.12h0s-.02.01-.03.02h0c-5.94,3.69-11.73,6.63-17.25,8.75l-2.28.87-.93-2.25c-15.59-37.89-23.34-80.79-23.34-123.74,0-45.27,8.61-90.6,25.82-130.16l1.21-2.77,2.5,1.71c8.44,5.77,16.66,11.73,24.46,17.74h0s0,0,0,0h0l.06.04h0s0,0,0,0h0s0,0,0,0c34.91,26.67,55.21,68.07,55.21,111.86,0,2.36-.06,4.72-.18,7.09-2.31,46.26-26.13,86.73-65.25,110.84h0,0ZM957.23,468.27l-1.49-1.94,1.91-1.53.06-.05h0s.14-.11.14-.11l.07-.04.1-.06c21.38-12.5,45.03-18.78,68.73-18.79h0s0,0,0,0h.01s0,0,0,0h0c22.54,0,45.11,5.67,65.82,17.03,42.44,23.27,68.94,66.03,70.77,114.26l-1,.04,1-.04h0c.17,4.78.26,9.47.35,14.2l.06,3.07-3.02-.57c-80.95-15.27-153.1-59.75-203.52-125.47Z"/>
</svg>